<svg width="102" height="52" viewBox="0 0 102 52" fill="none" xmlns="http://www.w3.org/2000/svg">
<path fill-rule="evenodd" clip-rule="evenodd" d="M0.997559 0H19.1259C32.1442 0 41.4377 12.3713 41.4377 24.0356V27.7332C41.4377 39.3974 32.1442 51.7689 19.1259 51.7689H0.997559V0ZM38.6487 24.0356C38.6487 13.5132 30.2391 2.77333 19.1259 2.77333H3.78653V48.9956H19.1259C30.2391 48.9956 38.6487 38.2557 38.6487 27.7333V24.0356Z" fill="#1E0606"/>
<path d="M47.4805 0H50.2694V49.2267H65.144V52H47.4805V0Z" fill="#1E0606"/>
<path d="M68.8626 0V51.7689H71.6516V27.3833L72.3362 26.7025L97.1676 51.7689H101.083L74.3083 24.7414L99.1893 0H95.2451L71.6516 23.4612V0H68.8626Z" fill="#1E0606"/>
</svg>
