<svg width="18" height="18" viewBox="0 0 18 18" fill="none" xmlns="http://www.w3.org/2000/svg">
<path d="M11.2614 0.26001C7.83851 0.26001 5.05615 3.08001 5.05615 6.52001C5.05615 7.98001 5.55657 9.30002 6.37727 10.38L0.492277 16.32C0.151988 16.68 0.151988 17.24 0.492277 17.58C0.67243 17.76 0.892618 17.84 1.1128 17.84C1.35301 17.84 1.57319 17.76 1.75334 17.58L7.63834 11.62C8.65921 12.36 9.90026 12.78 11.2414 12.78C14.6643 12.78 17.4467 9.96001 17.4467 6.52001C17.4667 3.06001 14.6843 0.26001 11.2614 0.26001ZM11.2614 11.2C8.71926 11.2 6.65751 9.10001 6.65751 6.52001C6.65751 3.94001 8.71926 1.84001 11.2614 1.84001C13.8036 1.84001 15.8653 3.94001 15.8653 6.52001C15.8653 9.10001 13.8036 11.2 11.2614 11.2ZM14.364 6.60001C14.324 6.94001 14.0238 7.20001 13.6835 7.20001C13.6434 7.20001 13.6234 7.20001 13.5834 7.20001C13.2031 7.14001 12.9428 6.80001 12.9829 6.42001C13.123 5.38001 11.962 4.84001 11.902 4.82001C11.5617 4.66001 11.4015 4.24001 11.5617 3.90001C11.7218 3.56001 12.1221 3.40001 12.4825 3.54001C12.5625 3.56001 14.6443 4.52001 14.364 6.60001ZM12.9028 8.12001C13.0429 8.26001 13.143 8.48002 13.143 8.68002C13.143 8.90002 13.0629 9.10001 12.9028 9.24002C12.7627 9.38002 12.5425 9.48002 12.3423 9.48002C12.1422 9.48002 11.922 9.40001 11.7819 9.24002C11.6417 9.10001 11.5417 8.88002 11.5417 8.68002C11.5417 8.48002 11.6217 8.26001 11.7819 8.12001C11.922 7.98001 12.1422 7.88002 12.3423 7.88002C12.5425 7.88002 12.7427 7.96001 12.9028 8.12001Z" fill="#1E0606"/>
</svg>
